# xmcd
#
# Track frame offsets: 
#        150
#        2755
#        23380
#        41047
#        62027
#        63617
#        82437
#        106100
#        127925
#        132725
#        149455
#        161530
#        183007
#        202432
#        219137
#        238607
#        244955
#        266665
#        287210
#        306677
#        310885
#        332530
#
# Disc length: 4640 seconds
#
# Revision: 5
# Processed by: cddbd v1.5.2PL0 Copyright (c) Steve Scherf et al.
# Submitted via: ExactAudioCopy v1.0b3
#
DISCID=34121e16,50121e16
DTITLE=Cunnie Williams - Star Hotel
DYEAR=1999
DGENRE=Electronic
TTITLE0=VIP Longe (Interlude)
TTITLE1=World Celebration
TTITLE2=Spinning Wheel
TTITLE3=Saturday (feat. Monie Love)
TTITLE4=On The Way To... (Interlude)
TTITLE5=Star Hotel
TTITLE6=Barry's Mood
TTITLE7=Here I Go Again
TTITLE8=New York (Interlude)
TTITLE9=Can I Rock?
TTITLE10=Free My Mind (Interlude)
TTITLE11=Black Boy
TTITLE12=By My Side (feat. Buddha Monk)
TTITLE13=I'll Be Over You
TTITLE14=Something's Just Ain't Right
TTITLE15=VB Vibe (Interlude)
TTITLE16=Mad About You
TTITLE17=Spirit
TTITLE18=Believe
TTITLE19=Mad Outro
TTITLE20=With Or Withat You
TTITLE21=Saturday (feat. Monie Love) (Mousse T's House Edit)
EXTD=
EXTT0=
EXTT1=
EXTT2=
EXTT3=
EXTT4=
EXTT5=
EXTT6=
EXTT7=
EXTT8=
EXTT9=
EXTT10=
EXTT11=
EXTT12=
EXTT13=
EXTT14=
EXTT15=
EXTT16=
EXTT17=
EXTT18=
EXTT19=
EXTT20=
EXTT21=
PLAYORDER=
